<svg width="29" height="23" viewBox="0 0 29 23" fill="none" xmlns="http://www.w3.org/2000/svg">
<path d="M12.914 21.9139C12.5389 22.2889 12.0303 22.4995 11.5 22.4995C10.9697 22.4995 10.4611 22.2889 10.086 21.9139L1.086 12.9139C0.711058 12.5389 0.500427 12.0303 0.500427 11.4999C0.500427 10.9696 0.711058 10.461 1.086 10.0859L10.086 1.08594C10.4632 0.721622 10.9684 0.520035 11.4928 0.524591C12.0172 0.529148 12.5188 0.739487 12.8896 1.1103C13.2605 1.48112 13.4708 1.98274 13.4753 2.50714C13.4799 3.03153 13.2783 3.53673 12.914 3.91394L7.5 9.49994L26.5 9.49994C27.0304 9.49994 27.5391 9.71065 27.9142 10.0857C28.2893 10.4608 28.5 10.9695 28.5 11.4999C28.5 12.0304 28.2893 12.5391 27.9142 12.9142C27.5391 13.2892 27.0304 13.4999 26.5 13.4999L7.5 13.4999L12.914 19.0859C13.2889 19.461 13.4996 19.9696 13.4996 20.4999C13.4996 21.0303 13.2889 21.5389 12.914 21.9139Z" fill="black"/>
</svg>
