<svg width="32" height="32" viewBox="0 0 32 32" fill="none" xmlns="http://www.w3.org/2000/svg">
<path d="M25.3333 5.33317H22.6666V3.99984C22.6666 3.64622 22.5261 3.30708 22.2761 3.05703C22.0261 2.80698 21.6869 2.6665 21.3333 2.6665C20.9797 2.6665 20.6405 2.80698 20.3905 3.05703C20.1404 3.30708 20 3.64622 20 3.99984V5.33317H12V3.99984C12 3.64622 11.8595 3.30708 11.6094 3.05703C11.3594 2.80698 11.0202 2.6665 10.6666 2.6665C10.313 2.6665 9.97387 2.80698 9.72382 3.05703C9.47377 3.30708 9.33329 3.64622 9.33329 3.99984V5.33317H6.66663C5.60576 5.33317 4.58834 5.7546 3.8382 6.50474C3.08805 7.25489 2.66663 8.2723 2.66663 9.33317V25.3332C2.66663 26.394 3.08805 27.4115 3.8382 28.1616C4.58834 28.9117 5.60576 29.3332 6.66663 29.3332H25.3333C26.3942 29.3332 27.4116 28.9117 28.1617 28.1616C28.9119 27.4115 29.3333 26.394 29.3333 25.3332V9.33317C29.3333 8.2723 28.9119 7.25489 28.1617 6.50474C27.4116 5.7546 26.3942 5.33317 25.3333 5.33317ZM26.6666 25.3332C26.6666 25.6868 26.5261 26.0259 26.2761 26.276C26.0261 26.526 25.6869 26.6665 25.3333 26.6665H6.66663C6.313 26.6665 5.97387 26.526 5.72382 26.276C5.47377 26.0259 5.33329 25.6868 5.33329 25.3332V15.9998H26.6666V25.3332ZM26.6666 13.3332H5.33329V9.33317C5.33329 8.97955 5.47377 8.64041 5.72382 8.39036C5.97387 8.14031 6.313 7.99984 6.66663 7.99984H9.33329V9.33317C9.33329 9.68679 9.47377 10.0259 9.72382 10.276C9.97387 10.526 10.313 10.6665 10.6666 10.6665C11.0202 10.6665 11.3594 10.526 11.6094 10.276C11.8595 10.0259 12 9.68679 12 9.33317V7.99984H20V9.33317C20 9.68679 20.1404 10.0259 20.3905 10.276C20.6405 10.526 20.9797 10.6665 21.3333 10.6665C21.6869 10.6665 22.0261 10.526 22.2761 10.276C22.5261 10.0259 22.6666 9.68679 22.6666 9.33317V7.99984H25.3333C25.6869 7.99984 26.0261 8.14031 26.2761 8.39036C26.5261 8.64041 26.6666 8.97955 26.6666 9.33317V13.3332Z" fill="#6C757D"/>
</svg>
