<svg width="32" height="32" viewBox="0 0 32 32" fill="none" xmlns="http://www.w3.org/2000/svg">
<path d="M24.0002 13.3337C24.0002 12.9801 23.8598 12.641 23.6097 12.3909C23.3597 12.1409 23.0205 12.0004 22.6669 12.0004H7.21356L10.2802 8.94708C10.5313 8.69601 10.6723 8.35548 10.6723 8.00041C10.6723 7.64534 10.5313 7.30481 10.2802 7.05374C10.0292 6.80267 9.68863 6.66162 9.33356 6.66162C8.97849 6.66162 8.63796 6.80267 8.38689 7.05374L3.05356 12.3871C2.86855 12.5746 2.74322 12.8127 2.69339 13.0713C2.64356 13.33 2.67145 13.5976 2.77356 13.8404C2.87359 14.0839 3.04345 14.2923 3.26174 14.4394C3.48004 14.5866 3.73699 14.6658 4.00023 14.6671H22.6669C23.0205 14.6671 23.3597 14.5266 23.6097 14.2766C23.8598 14.0265 24.0002 13.6874 24.0002 13.3337ZM29.2269 18.1604C29.1269 17.9169 28.957 17.7085 28.7387 17.5614C28.5204 17.4143 28.2635 17.3351 28.0002 17.3337H9.33356C8.97994 17.3337 8.6408 17.4742 8.39075 17.7243C8.1407 17.9743 8.00023 18.3135 8.00023 18.6671C8.00023 19.0207 8.1407 19.3598 8.39075 19.6099C8.6408 19.8599 8.97994 20.0004 9.33356 20.0004H24.7869L21.7202 23.0537C21.5953 23.1777 21.4961 23.3252 21.4284 23.4876C21.3607 23.6501 21.3258 23.8244 21.3258 24.0004C21.3258 24.1764 21.3607 24.3507 21.4284 24.5132C21.4961 24.6757 21.5953 24.8231 21.7202 24.9471C21.8442 25.072 21.9916 25.1712 22.1541 25.2389C22.3166 25.3066 22.4909 25.3415 22.6669 25.3415C22.8429 25.3415 23.0172 25.3066 23.1797 25.2389C23.3421 25.1712 23.4896 25.072 23.6136 24.9471L28.9469 19.6137C29.1319 19.4262 29.2572 19.1881 29.3071 18.9295C29.3569 18.6708 29.329 18.4032 29.2269 18.1604Z" fill="#6C757D"/>
</svg>
