<svg width="32" height="32" viewBox="0 0 32 32" fill="none" xmlns="http://www.w3.org/2000/svg">
<path d="M8.00004 25.3332H12V18.6665C12 18.2887 12.128 17.9723 12.384 17.7172C12.64 17.4621 12.9565 17.3341 13.3334 17.3332H18.6667C19.0445 17.3332 19.3614 17.4612 19.6174 17.7172C19.8734 17.9732 20.0009 18.2896 20 18.6665V25.3332H24V13.3332L16 7.33317L8.00004 13.3332V25.3332ZM5.33337 25.3332V13.3332C5.33337 12.9109 5.42804 12.5109 5.61737 12.1332C5.80671 11.7554 6.0676 11.4443 6.40004 11.1998L14.4 5.19984C14.8667 4.84428 15.4 4.6665 16 4.6665C16.6 4.6665 17.1334 4.84428 17.6 5.19984L25.6 11.1998C25.9334 11.4443 26.1947 11.7554 26.384 12.1332C26.5734 12.5109 26.6676 12.9109 26.6667 13.3332V25.3332C26.6667 26.0665 26.4054 26.6945 25.8827 27.2172C25.36 27.7398 24.7325 28.0007 24 27.9998H18.6667C18.2889 27.9998 17.9725 27.8718 17.7174 27.6158C17.4623 27.3598 17.3343 27.0434 17.3334 26.6665V19.9998H14.6667V26.6665C14.6667 27.0443 14.5387 27.3612 14.2827 27.6172C14.0267 27.8732 13.7103 28.0007 13.3334 27.9998H8.00004C7.26671 27.9998 6.63915 27.7389 6.11737 27.2172C5.5956 26.6954 5.33426 26.0674 5.33337 25.3332Z" fill="#6C757D"/>
</svg>
