<svg width="26" height="19" viewBox="0 0 26 19" fill="none" xmlns="http://www.w3.org/2000/svg">
<path d="M20.0459 6.67212C20.0459 6.3185 19.9139 5.97936 19.6789 5.72931C19.4439 5.47927 19.1252 5.33879 18.7929 5.33879H4.2705L7.15243 2.28546C7.38837 2.03438 7.52093 1.69386 7.52093 1.33879C7.52093 0.98372 7.38837 0.643194 7.15243 0.392122C6.91648 0.141051 6.59647 2.64547e-09 6.26279 0C5.92911 -2.64547e-09 5.6091 0.141051 5.37315 0.392122L0.361101 5.72546C0.187236 5.91295 0.0694576 6.15105 0.0226273 6.4097C-0.0242029 6.66836 0.00201346 6.93597 0.0979684 7.17879C0.19197 7.42228 0.351601 7.63072 0.556744 7.77783C0.761887 7.92494 1.00336 8.00414 1.25074 8.00546H18.7929C19.1252 8.00546 19.4439 7.86498 19.6789 7.61493C19.9139 7.36488 20.0459 7.02574 20.0459 6.67212ZM24.9577 11.4988C24.8637 11.2553 24.7041 11.0469 24.499 10.8998C24.2938 10.7526 24.0523 10.6734 23.805 10.6721H6.26279C5.93047 10.6721 5.61176 10.8126 5.37677 11.0626C5.14179 11.3127 5.00978 11.6518 5.00978 12.0055C5.00978 12.3591 5.14179 12.6982 5.37677 12.9483C5.61176 13.1983 5.93047 13.3388 6.26279 13.3388H20.7852L17.9033 16.3921C17.7858 16.5161 17.6926 16.6635 17.629 16.826C17.5654 16.9885 17.5326 17.1628 17.5326 17.3388C17.5326 17.5148 17.5654 17.6891 17.629 17.8516C17.6926 18.014 17.7858 18.1615 17.9033 18.2855C18.0198 18.4104 18.1583 18.5096 18.311 18.5773C18.4637 18.645 18.6275 18.6799 18.7929 18.6799C18.9583 18.6799 19.1221 18.645 19.2748 18.5773C19.4275 18.5096 19.5661 18.4104 19.6825 18.2855L24.6946 12.9521C24.8685 12.7646 24.9862 12.5265 25.0331 12.2679C25.0799 12.0092 25.0537 11.7416 24.9577 11.4988Z" fill="#6C757D"/>
</svg>
