<svg width="38" height="28" viewBox="0 0 38 28" fill="none" xmlns="http://www.w3.org/2000/svg">
<path fill-rule="evenodd" clip-rule="evenodd" d="M16.3687 19.2855C16.027 19.6272 15.473 19.6272 15.1313 19.2855L10.4646 14.6188C10.1229 14.2771 10.1229 13.7231 10.4646 13.3814L15.1313 8.7147C15.473 8.37299 16.027 8.37299 16.3687 8.7147C16.7104 9.05641 16.7104 9.61042 16.3687 9.95213L12.3208 14.0001L16.3687 18.048C16.7104 18.3897 16.7104 18.9438 16.3687 19.2855Z" fill="#2E6FF2"/>
<path fill-rule="evenodd" clip-rule="evenodd" d="M26.3687 19.2855C26.027 19.6272 25.473 19.6272 25.1313 19.2855L20.4646 14.6188C20.1229 14.2771 20.1229 13.7231 20.4646 13.3814L25.1313 8.7147C25.473 8.37299 26.027 8.37299 26.3687 8.7147C26.7104 9.05641 26.7104 9.61042 26.3687 9.95213L22.3208 14.0001L26.3687 18.048C26.7104 18.3897 26.7104 18.9438 26.3687 19.2855Z" fill="#2E6FF2"/>
</svg>
