<svg width="32" height="32" viewBox="0 0 32 32" fill="none" xmlns="http://www.w3.org/2000/svg">
<path d="M5.33325 23.9998C5.33325 22.5853 5.89515 21.2288 6.89535 20.2286C7.89554 19.2284 9.2521 18.6665 10.6666 18.6665H21.3333C22.7477 18.6665 24.1043 19.2284 25.1045 20.2286C26.1047 21.2288 26.6666 22.5853 26.6666 23.9998C26.6666 24.7071 26.3856 25.3854 25.8855 25.8855C25.3854 26.3856 24.7072 26.6665 23.9999 26.6665H7.99992C7.29267 26.6665 6.6144 26.3856 6.1143 25.8855C5.6142 25.3854 5.33325 24.7071 5.33325 23.9998Z" stroke="#6C757D" stroke-width="2.66667" stroke-linejoin="round"/>
<path d="M15.9999 13.3335C18.209 13.3335 19.9999 11.5426 19.9999 9.3335C19.9999 7.12436 18.209 5.3335 15.9999 5.3335C13.7907 5.3335 11.9999 7.12436 11.9999 9.3335C11.9999 11.5426 13.7907 13.3335 15.9999 13.3335Z" stroke="#6C757D" stroke-width="2.66667"/>
</svg>
