<svg width="24" height="24" viewBox="0 0 24 24" fill="none" xmlns="http://www.w3.org/2000/svg">
<path d="M8.9034 5.7608H10.6186V17.652H8.9034V5.7608ZM1.3898 13.5048H2.4394C3.13913 13.5048 3.80047 13.4963 4.4234 13.4792C5.04633 13.4536 5.65647 13.4152 6.2538 13.364C6.85113 13.3043 7.46127 13.2189 8.0842 13.108L8.2634 14.4776C7.30767 14.6483 6.36473 14.7635 5.4346 14.8232C4.513 14.8744 3.5146 14.9 2.4394 14.9H1.3898V13.5048ZM1.3642 6.772H6.9578V11.3672H3.1178V14.0296H1.3898V10.0232H5.2298V8.1416H1.3642V6.772ZM17.2352 8.18H19.104V9.5624H17.2352V8.18ZM20.9984 5.7864H22.624V13.8248H20.9984V5.7864ZM18.6432 6.0168H20.2304V12.724H18.6432V6.0168ZM17.7856 13.2232H19.232V13.4792C19.232 13.9912 19.1296 14.4776 18.9248 14.9384C18.7285 15.3907 18.4341 15.796 18.0416 16.1544C17.6491 16.5128 17.1669 16.8157 16.5952 17.0632C16.0235 17.3192 15.3664 17.4984 14.624 17.6008L14.0096 16.2824C14.5216 16.2141 14.9781 16.116 15.3792 15.988C15.7888 15.8515 16.1429 15.6893 16.4416 15.5016C16.7403 15.3139 16.9877 15.1133 17.184 14.9C17.3888 14.6781 17.5381 14.4477 17.632 14.2088C17.7344 13.9699 17.7856 13.7267 17.7856 13.4792V13.2232ZM18.0288 13.2232H19.4752V13.4792C19.4752 13.7267 19.5221 13.9699 19.616 14.2088C19.7184 14.4477 19.8677 14.6781 20.064 14.9C20.2688 15.1133 20.5205 15.3139 20.8192 15.5016C21.1179 15.6893 21.4677 15.8515 21.8688 15.988C22.2784 16.116 22.7392 16.2141 23.2512 16.2824L22.6368 17.6008C21.8944 17.4984 21.2373 17.3192 20.6656 17.0632C20.0939 16.8157 19.6117 16.5128 19.2192 16.1544C18.8267 15.796 18.528 15.3907 18.3232 14.9384C18.1269 14.4776 18.0288 13.9912 18.0288 13.4792V13.2232ZM14.6112 6.516H15.9424V7.86C15.9424 8.5256 15.8485 9.1784 15.6608 9.8184C15.4731 10.4499 15.1829 11.0173 14.7904 11.5208C14.3979 12.0243 13.8859 12.4125 13.2544 12.6856L12.3584 11.3928C12.896 11.1453 13.3312 10.8339 13.664 10.4584C13.9968 10.0744 14.2357 9.66053 14.3808 9.2168C14.5344 8.76453 14.6112 8.31227 14.6112 7.86V6.516ZM14.944 6.516H16.2496V7.86C16.2496 8.31227 16.3179 8.75173 16.4544 9.1784C16.5995 9.59653 16.8213 9.9848 17.12 10.3432C17.4187 10.6931 17.8112 10.9832 18.2976 11.2136L17.3888 12.5064C16.8085 12.2333 16.3349 11.8621 15.968 11.3928C15.6096 10.9149 15.3493 10.3731 15.1872 9.7672C15.0251 9.16133 14.944 8.5256 14.944 7.86V6.516Z" fill="black"/>
</svg>
