<svg width="38" height="28" viewBox="0 0 38 28" fill="none" xmlns="http://www.w3.org/2000/svg">
<path fill-rule="evenodd" clip-rule="evenodd" d="M21.6313 8.71453C21.973 8.37282 22.527 8.37282 22.8687 8.71453L27.5354 13.3812C27.8771 13.7229 27.8771 14.2769 27.5354 14.6186L22.8687 19.2853C22.527 19.627 21.973 19.627 21.6313 19.2853C21.2896 18.9436 21.2896 18.3896 21.6313 18.0479L25.6792 13.9999L21.6313 9.95197C21.2896 9.61026 21.2896 9.05624 21.6313 8.71453Z" fill="#2E6FF2"/>
<path fill-rule="evenodd" clip-rule="evenodd" d="M11.6313 8.71453C11.973 8.37282 12.527 8.37282 12.8687 8.71453L17.5354 13.3812C17.8771 13.7229 17.8771 14.2769 17.5354 14.6186L12.8687 19.2853C12.527 19.627 11.973 19.627 11.6313 19.2853C11.2896 18.9436 11.2896 18.3896 11.6313 18.0479L15.6792 13.9999L11.6313 9.95197C11.2896 9.61026 11.2896 9.05624 11.6313 8.71453Z" fill="#2E6FF2"/>
</svg>
