<svg width="26" height="30" viewBox="0 0 26 30" fill="none" xmlns="http://www.w3.org/2000/svg">
<path d="M20.416 11.2958L19.7147 12.5331C19.0547 13.6971 18.724 14.2784 18.0053 14.3291C17.2853 14.3798 16.9813 13.9638 16.372 13.1318C15.6947 12.1998 15.2602 11.1137 15.108 9.97175C14.9653 8.90642 14.8947 8.37442 14.7213 8.11175C14.4467 7.69442 13.892 7.46509 13.4787 7.22242C12.3893 6.58242 11.844 6.26242 11.7013 5.71709C11.5573 5.17442 11.872 4.61975 12.5013 3.51042C13.1307 2.40109 13.4453 1.84642 13.98 1.70109C14.5133 1.55442 15.06 1.87575 16.1493 2.51575C16.5627 2.75975 17.0347 3.13175 17.528 3.16642C17.8373 3.18775 18.3267 2.98375 19.304 2.57709C20.3525 2.13813 21.4965 1.97738 22.6253 2.11042C23.6387 2.23175 24.1453 2.29309 24.46 2.95042C24.7773 3.61042 24.4467 4.19175 23.7867 5.35575L23.0853 6.59042M20.416 11.2958L20.9947 11.6358C21.2984 11.8136 21.6346 11.9291 21.9835 11.9754C22.3325 12.0217 22.6871 11.9979 23.0267 11.9054C23.3664 11.8129 23.6841 11.6535 23.9613 11.4367C24.2386 11.2198 24.4698 10.9498 24.6413 10.6424C24.9964 10.0188 25.093 9.28091 24.9103 8.58695C24.7275 7.893 24.2801 7.2983 23.664 6.93042L23.0853 6.59042M20.416 11.2958L23.0853 6.59042M5 14.9998L14.3333 8.33309M6.33333 28.3331H15.6667M5 18.9998L11.6667 28.3331M6.33333 16.3331C6.33333 17.0403 6.05238 17.7186 5.55229 18.2187C5.05219 18.7188 4.37391 18.9998 3.66667 18.9998C2.95942 18.9998 2.28115 18.7188 1.78105 18.2187C1.28095 17.7186 1 17.0403 1 16.3331C1 15.6258 1.28095 14.9476 1.78105 14.4475C2.28115 13.9474 2.95942 13.6664 3.66667 13.6664C4.37391 13.6664 5.05219 13.9474 5.55229 14.4475C6.05238 14.9476 6.33333 15.6258 6.33333 16.3331Z" stroke="#6C757D" stroke-width="2" stroke-linecap="round" stroke-linejoin="round"/>
</svg>
