<svg width="25" height="24" viewBox="0 0 25 24" fill="none" xmlns="http://www.w3.org/2000/svg">
<path d="M8.20001 9.45001C7.7858 9.45001 7.45001 9.7858 7.45001 10.2C7.45001 10.6142 7.7858 10.95 8.20001 10.95H13.2C13.6142 10.95 13.95 10.6142 13.95 10.2C13.95 9.7858 13.6142 9.45001 13.2 9.45001H8.20001Z" fill="black"/>
<path fill-rule="evenodd" clip-rule="evenodd" d="M5.8986 14.9445C8.35538 17.4013 12.2348 17.5684 14.8851 15.4457L20.0407 20.6014C20.3336 20.8943 20.8085 20.8943 21.1014 20.6014C21.3943 20.3085 21.3943 19.8336 21.1014 19.5407L15.9457 14.3851C18.0684 11.7348 17.9013 7.85538 15.4445 5.3986C12.8085 2.76256 8.53464 2.76256 5.8986 5.3986C3.26256 8.03464 3.26256 12.3085 5.8986 14.9445ZM6.95926 6.45926C4.90901 8.50951 4.90901 11.8336 6.95926 13.8839C9.00801 15.9326 12.3288 15.9341 14.3794 13.8884L14.3839 13.8839L14.3884 13.8794C16.4341 11.8287 16.4326 8.50801 14.3839 6.45926C12.3336 4.40901 9.00951 4.40901 6.95926 6.45926Z" fill="black"/>
</svg>
