<svg width="16" height="16" viewBox="0 0 16 16" fill="none" xmlns="http://www.w3.org/2000/svg">
<rect width="16" height="16" rx="8" fill="white"/>
<path d="M3.84805 7.90822C3.83658 7.79257 3.78736 7.70272 3.70038 7.63868C3.6134 7.57464 3.49536 7.54263 3.34625 7.54263C3.24494 7.54263 3.15939 7.55696 3.08962 7.58564C3.01984 7.61336 2.96632 7.65207 2.92904 7.70177C2.89272 7.75147 2.87456 7.80786 2.87456 7.87094C2.87265 7.92351 2.88364 7.96939 2.90754 8.00858C2.93239 8.04777 2.96632 8.0817 3.00933 8.11037C3.05234 8.13809 3.10204 8.16246 3.15844 8.18349C3.21483 8.20356 3.27504 8.22077 3.33908 8.23511L3.60288 8.29819C3.73096 8.32686 3.84853 8.3651 3.95558 8.41289C4.06263 8.46068 4.15534 8.51946 4.23372 8.58923C4.31209 8.65901 4.37279 8.7412 4.4158 8.83583C4.45976 8.93045 4.48223 9.03894 4.48318 9.16128C4.48223 9.34097 4.43635 9.49677 4.34555 9.62867C4.2557 9.75962 4.12571 9.86141 3.95558 9.93405C3.7864 10.0057 3.58234 10.0416 3.34338 10.0416C3.10634 10.0416 2.89989 10.0053 2.72402 9.93262C2.54911 9.85997 2.41243 9.75245 2.31398 9.61003C2.21649 9.46666 2.16535 9.28936 2.16058 9.07813H2.7613C2.76799 9.17657 2.79619 9.25877 2.84589 9.32472C2.89655 9.38972 2.96393 9.43894 3.04804 9.4724C3.13311 9.50489 3.22917 9.52114 3.33622 9.52114C3.44135 9.52114 3.53263 9.50585 3.61005 9.47526C3.68843 9.44468 3.74912 9.40214 3.79213 9.34766C3.83515 9.29318 3.85665 9.23058 3.85665 9.15985C3.85665 9.0939 3.83706 9.03846 3.79787 8.99354C3.75964 8.94861 3.70324 8.91038 3.62869 8.87884C3.55509 8.8473 3.46477 8.81863 3.35772 8.79282L3.038 8.71253C2.79045 8.65231 2.59499 8.55817 2.45162 8.43009C2.30825 8.30201 2.23704 8.12949 2.238 7.91252C2.23704 7.73474 2.28435 7.57942 2.37993 7.44657C2.47647 7.31371 2.60885 7.21001 2.77707 7.13545C2.94529 7.0609 3.13645 7.02362 3.35055 7.02362C3.56848 7.02362 3.75868 7.0609 3.92117 7.13545C4.08461 7.21001 4.21173 7.31371 4.30253 7.44657C4.39334 7.57942 4.44017 7.73331 4.44304 7.90822H3.84805ZM10.5073 7.06377H11.2729L12.0815 9.03655H12.1159L12.9245 7.06377H13.6901V10H13.0879V8.08887H13.0636L12.3037 9.98566H11.8937L11.1338 8.0817H11.1094V10H10.5073V7.06377Z" fill="#2E6FF2"/>
<path d="M7.77699 7.05822L9.69529 8.00977L7.77768 8.96064L5.80758 7.99182L7.77699 7.05822Z" stroke="#F87067" stroke-width="0.322986"/>
<path d="M5.69922 8.0708V9.05994" stroke="#F87067" stroke-width="0.322986" stroke-linecap="round"/>
<path d="M6.40576 8.39355V9.524" stroke="#F87067" stroke-width="0.322986" stroke-linecap="round"/>
<path d="M6.4259 9.52393C6.65468 9.63832 7.32189 9.90747 7.75822 9.90747C8.20232 9.90747 8.80792 9.65177 9.11072 9.52393" stroke="#F87067" stroke-width="0.322986" stroke-linecap="round"/>
<path d="M9.11084 8.39355V9.524" stroke="#F87067" stroke-width="0.322986" stroke-linecap="round"/>
</svg>
