<svg width="238" height="52" viewBox="0 0 238 52" fill="none" xmlns="http://www.w3.org/2000/svg">
<path d="M20.7905 23.6467C20.6615 22.3456 20.1077 21.3348 19.1292 20.6144C18.1507 19.894 16.8228 19.5337 15.1453 19.5337C14.0055 19.5337 13.0432 19.695 12.2582 20.0176C11.4732 20.3294 10.8711 20.7649 10.4517 21.3241C10.0431 21.8832 9.83882 22.5176 9.83882 23.2273C9.81731 23.8187 9.94097 24.3349 10.2098 24.7757C10.4894 25.2166 10.8711 25.5983 11.355 25.9209C11.8388 26.2327 12.398 26.5069 13.0324 26.7435C13.6668 26.9693 14.3442 27.1629 15.0647 27.3241L18.0325 28.0338C19.4733 28.3564 20.7959 28.7865 22.0002 29.3242C23.2046 29.8618 24.2476 30.5231 25.1293 31.3081C26.011 32.093 26.6938 33.0178 27.1777 34.0823C27.6723 35.1468 27.925 36.3673 27.9358 37.7436C27.925 39.7651 27.4089 41.5178 26.3874 43.0017C25.3766 44.4749 23.9142 45.62 22.0002 46.4373C20.097 47.2437 17.8013 47.6469 15.1131 47.6469C12.4464 47.6469 10.1238 47.2383 8.14525 46.4211C6.17749 45.6039 4.63984 44.3942 3.5323 42.7921C2.43551 41.1791 1.86024 39.1845 1.80647 36.8081H8.56461C8.63988 37.9157 8.95709 38.8404 9.51623 39.5823C10.0861 40.3135 10.8442 40.8673 11.7905 41.2437C12.7475 41.6092 13.8281 41.792 15.0324 41.792C16.2152 41.792 17.2421 41.62 18.1131 41.2759C18.9948 40.9318 19.6776 40.4533 20.1615 39.8404C20.6454 39.2275 20.8873 38.5232 20.8873 37.7275C20.8873 36.9855 20.6669 36.3619 20.226 35.8565C19.7959 35.3511 19.1615 34.921 18.3228 34.5662C17.4948 34.2113 16.4787 33.8887 15.2744 33.5984L11.6775 32.6952C8.89257 32.0177 6.69362 30.9586 5.0807 29.5177C3.46778 28.0768 2.6667 26.136 2.67745 23.6951C2.6667 21.695 3.19896 19.9477 4.27424 18.4531C5.36027 16.9584 6.84954 15.7918 8.74203 14.953C10.6345 14.1143 12.7851 13.695 15.1937 13.695C17.6454 13.695 19.7852 14.1143 21.6131 14.953C23.4519 15.7918 24.882 16.9584 25.9035 18.4531C26.925 19.9477 27.4519 21.6789 27.4842 23.6467H20.7905ZM45.6819 22.4047V27.5661H30.7624V22.4047H45.6819ZM34.1496 16.4692H41.0206V39.5662C41.0206 40.2006 41.1174 40.6953 41.3109 41.0501C41.5045 41.3942 41.7733 41.6361 42.1174 41.7759C42.4722 41.9157 42.8808 41.9856 43.3432 41.9856C43.6658 41.9856 43.9884 41.9587 44.311 41.9049C44.6336 41.8404 44.8809 41.792 45.0529 41.7598L46.1336 46.8727C45.7895 46.9803 45.3056 47.1039 44.6819 47.2437C44.0583 47.3943 43.3002 47.4857 42.4077 47.5179C40.7518 47.5824 39.3002 47.362 38.0528 46.8566C36.8163 46.3512 35.8539 45.5663 35.1657 44.5018C34.4775 43.4372 34.1388 42.0931 34.1496 40.4694V16.4692ZM66.0451 36.6307V22.4047H72.9161V47.1792H66.3193V42.6791H66.0612C65.5021 44.1308 64.5719 45.2975 63.2709 46.1792C61.9805 47.0609 60.4052 47.5018 58.545 47.5018C56.8891 47.5018 55.4321 47.1254 54.174 46.3727C52.9159 45.62 51.932 44.5501 51.2223 43.163C50.5234 41.7759 50.1686 40.1146 50.1578 38.1791V22.4047H57.0288V36.9533C57.0396 38.4157 57.4321 39.5716 58.2063 40.4211C58.9805 41.2705 60.0181 41.6953 61.3192 41.6953C62.1472 41.6953 62.9214 41.5071 63.6418 41.1307C64.3623 40.7436 64.9429 40.1737 65.3838 39.421C65.8354 38.6684 66.0558 37.7382 66.0451 36.6307ZM141.614 14.1466H150.227L159.324 36.3404H159.711L168.808 14.1466H177.421V47.1792H170.647V25.679H170.373L161.824 47.0179H157.211L148.663 25.5983H148.389V47.1792H141.614V14.1466ZM194.24 47.6631C191.735 47.6631 189.568 47.1308 187.74 46.0663C185.923 44.991 184.519 43.4964 183.53 41.5824C182.541 39.6576 182.046 37.4264 182.046 34.8887C182.046 32.3296 182.541 30.093 183.53 28.179C184.519 26.2542 185.923 24.7596 187.74 23.6951C189.568 22.6198 191.735 22.0822 194.24 22.0822C196.745 22.0822 198.907 22.6198 200.724 23.6951C202.552 24.7596 203.961 26.2542 204.95 28.179C205.939 30.093 206.434 32.3296 206.434 34.8887C206.434 37.4264 205.939 39.6576 204.95 41.5824C203.961 43.4964 202.552 44.991 200.724 46.0663C198.907 47.1308 196.745 47.6631 194.24 47.6631ZM194.272 42.3404C195.412 42.3404 196.364 42.0179 197.127 41.3727C197.891 40.7168 198.466 39.8243 198.853 38.6952C199.251 37.5662 199.45 36.2812 199.45 34.8404C199.45 33.3995 199.251 32.1145 198.853 30.9855C198.466 29.8564 197.891 28.9639 197.127 28.308C196.364 27.6521 195.412 27.3241 194.272 27.3241C193.122 27.3241 192.154 27.6521 191.369 28.308C190.595 28.9639 190.009 29.8564 189.611 30.9855C189.224 32.1145 189.03 33.3995 189.03 34.8404C189.03 36.2812 189.224 37.5662 189.611 38.6952C190.009 39.8243 190.595 40.7168 191.369 41.3727C192.154 42.0179 193.122 42.3404 194.272 42.3404ZM217.773 32.8565V47.1792H210.901V22.4047H217.45V26.7758H217.74C218.289 25.3349 219.208 24.1951 220.498 23.3564C221.789 22.5069 223.353 22.0822 225.192 22.0822C226.912 22.0822 228.412 22.4585 229.692 23.2112C230.972 23.9639 231.966 25.0392 232.676 26.437C233.386 27.8241 233.74 29.4801 233.74 31.4048V47.1792H226.869V32.6307C226.88 31.1145 226.493 29.9317 225.708 29.0822C224.923 28.222 223.842 27.7919 222.466 27.7919C221.541 27.7919 220.724 27.9908 220.014 28.3887C219.316 28.7865 218.767 29.3672 218.369 30.1306C217.982 30.8833 217.783 31.7919 217.773 32.8565Z" fill="#2E6FF2"/>
<path d="M108.988 15.4184L130.577 26.1175L109.003 36.8091L86.8429 25.9187L108.988 15.4184Z" stroke="#F87067" stroke-width="3.63359"/>
<path d="M85.6163 26.7974V37.9252" stroke="#F87067" stroke-width="3.63359" stroke-linecap="round"/>
<path d="M93.5646 30.4307V43.1482" stroke="#F87067" stroke-width="3.63359" stroke-linecap="round"/>
<path d="M93.7917 43.1489C96.3655 44.4358 103.872 47.4638 108.78 47.4638C113.776 47.4638 120.589 44.5872 123.996 43.1489" stroke="#F87067" stroke-width="3.63359" stroke-linecap="round"/>
<path d="M123.996 30.4307V43.1482" stroke="#F87067" stroke-width="3.63359" stroke-linecap="round"/>
</svg>
